<svg xmlns="http://www.w3.org/2000/svg" width="1280" height="720" viewBox="0 0 1280 720">
  <rect width="1280" height="720" fill="#f8faf7"/>
  <rect x="48" y="42" width="1184" height="636" rx="18" fill="#ffffff" stroke="#c9d3cc" stroke-width="3"/>
  <rect x="48" y="42" width="1184" height="92" fill="#225c7a"/>
  <text x="82" y="96" font-family="Arial, sans-serif" font-size="34" font-weight="800" fill="#ffffff">Dance Studies</text>
  <text x="82" y="124" font-family="Arial, sans-serif" font-size="18" font-weight="700" fill="#dbeafe">Grade 10 Dance Studies Practical Performance Assessment: Exploring Movement Vocabulary and Cultural Context</text>
  <text x="82" y="184" font-family="Arial" font-size="27" font-weight="800" fill="#18212b">DIAGRAM 1: Performance space</text>
<rect x="106" y="220" width="514" height="350" rx="16" fill="#eef6f3" stroke="#1f6b3a" stroke-width="4"/>
<path d="M168 502 C260 350 392 430 534 274" fill="none" stroke="#b64a3d" stroke-width="8" stroke-linecap="round"/>
<path d="M176 284 C280 210 386 318 506 260" fill="none" stroke="#f3b64b" stroke-width="8" stroke-linecap="round"/>
<circle cx="188" cy="506" r="16" fill="#b64a3d"/><text x="210" y="514" font-family="Arial" font-size="18" font-weight="800">start</text>
<circle cx="536" cy="272" r="16" fill="#225c7a"/><text x="558" y="280" font-family="Arial" font-size="18" font-weight="800">finish</text>
<rect x="700" y="230" width="390" height="42" rx="8" fill="#f2f7f4" stroke="#c9d3cc"/>
<text x="724" y="258" font-family="Arial" font-size="22" font-weight="800" fill="#18212b">Technique</text>
<rect x="950" y="240" width="108" height="20" rx="10" fill="#f3b64b"/>
<rect x="700" y="288" width="390" height="42" rx="8" fill="#ffffff" stroke="#c9d3cc"/>
<text x="724" y="316" font-family="Arial" font-size="22" font-weight="800" fill="#18212b">Dynamics</text>
<rect x="950" y="298" width="108" height="20" rx="10" fill="#f3b64b"/>
<rect x="700" y="346" width="390" height="42" rx="8" fill="#f2f7f4" stroke="#c9d3cc"/>
<text x="724" y="374" font-family="Arial" font-size="22" font-weight="800" fill="#18212b">Space</text>
<rect x="950" y="356" width="108" height="20" rx="10" fill="#f3b64b"/>
<rect x="700" y="404" width="390" height="42" rx="8" fill="#ffffff" stroke="#c9d3cc"/>
<text x="724" y="432" font-family="Arial" font-size="22" font-weight="800" fill="#18212b">Expression</text>
<rect x="950" y="414" width="108" height="20" rx="10" fill="#f3b64b"/>
<rect x="700" y="462" width="390" height="42" rx="8" fill="#f2f7f4" stroke="#c9d3cc"/>
<text x="724" y="490" font-family="Arial" font-size="22" font-weight="800" fill="#18212b">Reflection</text>
<rect x="950" y="472" width="108" height="20" rx="10" fill="#f3b64b"/>
<text x="700" y="568" font-family="Arial" font-size="20" fill="#5b6570">Use the rubric to record observable performance evidence.</text>
</svg>
