<svg xmlns="http://www.w3.org/2000/svg" width="1280" height="720" viewBox="0 0 1280 720">
  <rect width="1280" height="720" fill="#ffffff"/>
  <rect x="54" y="42" width="1172" height="636" fill="#ffffff" stroke="#18212b" stroke-width="2"/>
  <line x1="54" y1="134" x2="1226" y2="134" stroke="#18212b" stroke-width="2"/>
  <text x="82" y="82" font-family="Arial, sans-serif" font-size="28" font-weight="800" fill="#18212b">Geography</text>
  <text x="82" y="116" font-family="Arial, sans-serif" font-size="16" font-weight="600" fill="#5b6570">Grade 10 Geography Term 3 Visual Asset Pack: Population ± 36 hours</text>
  <text x="1198" y="82" text-anchor="end" font-family="Arial, sans-serif" font-size="18" font-weight="800" fill="#18212b">MAP SOURCE</text>
  <text x="82" y="166" font-family="Arial, sans-serif" font-size="24" font-weight="800" fill="#18212b">Economic Geography Map And Resource Data</text>
<rect x="88" y="196" width="600" height="360" fill="#f8faf7" stroke="#18212b" stroke-width="3"/>
<circle cx="244" cy="338" r="42" fill="#f3b64b" stroke="#18212b" stroke-width="3"/><text x="244" y="346" text-anchor="middle" font-family="Arial" font-size="16" font-weight="800">Mine</text>
<rect x="432" y="278" width="116" height="72" fill="#fee2e2" stroke="#b64a3d" stroke-width="3"/><text x="490" y="320" text-anchor="middle" font-family="Arial" font-size="16" font-weight="800">Industry</text>
<path d="M120 496 C248 434 356 416 484 370 C560 342 610 298 664 236" fill="none" stroke="#6b7280" stroke-width="8" stroke-dasharray="18 10"/>
<path d="M368 210 L636 260 L612 490 L338 514 Z" fill="#1f6b3a" opacity="0.12" stroke="#1f6b3a" stroke-width="3"/>
<path d="M610 230 L610 280 M592 248 L610 230 L628 248" stroke="#18212b" stroke-width="3" fill="none"/>
<text x="610" y="300" text-anchor="middle" font-family="Arial, sans-serif" font-size="14" font-weight="800" fill="#18212b">N</text>
<line x1="116" y1="532" x2="236" y2="532" stroke="#18212b" stroke-width="5"/>
<text x="176" y="550" text-anchor="middle" font-family="Arial, sans-serif" font-size="13" font-weight="700" fill="#18212b">0    5 km</text>
<rect x="106" y="210" width="210" height="96" fill="#ffffff" stroke="#18212b" stroke-width="1.5"/>
<text x="120" y="234" font-family="Arial, sans-serif" font-size="14" font-weight="800" fill="#18212b">Legend</text>
<line x1="122" y1="256" x2="166" y2="256" stroke="#f3b64b" stroke-width="6"/>
<text x="178" y="261" font-family="Arial, sans-serif" font-size="13" fill="#18212b">Mining</text>
<line x1="122" y1="279" x2="166" y2="279" stroke="#b64a3d" stroke-width="6"/>
<text x="178" y="284" font-family="Arial, sans-serif" font-size="13" fill="#18212b">Industry</text>
<line x1="122" y1="302" x2="166" y2="302" stroke="#6b7280" stroke-width="6"/>
<text x="178" y="307" font-family="Arial, sans-serif" font-size="13" fill="#18212b">Transport</text>
<text x="96" y="584" font-family="Arial, sans-serif" font-size="14" font-weight="500" fill="#5b6570">Use resource location, transport links and sector data to explain</text>
<text x="96" y="602" font-family="Arial, sans-serif" font-size="14" font-weight="500" fill="#5b6570">economic patterns.</text>
<text x="744" y="210" font-family="Arial, sans-serif" font-size="19" font-weight="800" fill="#18212b">Regional economic data</text>
<rect x="744" y="230" width="112" height="38" fill="#e5e7eb" stroke="#18212b" stroke-width="1.5"/>
<text x="754" y="255" font-family="Arial, sans-serif" font-size="14" font-weight="800" fill="#18212b">Region</text>
<rect x="856" y="230" width="112" height="38" fill="#e5e7eb" stroke="#18212b" stroke-width="1.5"/>
<text x="866" y="255" font-family="Arial, sans-serif" font-size="14" font-weight="800" fill="#18212b">Resource</text>
<rect x="968" y="230" width="104" height="38" fill="#e5e7eb" stroke="#18212b" stroke-width="1.5"/>
<text x="978" y="255" font-family="Arial, sans-serif" font-size="14" font-weight="800" fill="#18212b">Output</text>
<rect x="1072" y="230" width="124" height="38" fill="#e5e7eb" stroke="#18212b" stroke-width="1.5"/>
<text x="1082" y="255" font-family="Arial, sans-serif" font-size="14" font-weight="800" fill="#18212b">Jobs</text>
<rect x="744" y="268" width="112" height="38" fill="#ffffff" stroke="#18212b" stroke-width="1"/>
<text x="754" y="293" font-family="Arial, sans-serif" font-size="14" fill="#18212b">A</text>
<rect x="856" y="268" width="112" height="38" fill="#ffffff" stroke="#18212b" stroke-width="1"/>
<text x="866" y="293" font-family="Arial, sans-serif" font-size="14" fill="#18212b">Coal</text>
<rect x="968" y="268" width="104" height="38" fill="#ffffff" stroke="#18212b" stroke-width="1"/>
<text x="978" y="293" font-family="Arial, sans-serif" font-size="14" fill="#18212b">High</text>
<rect x="1072" y="268" width="124" height="38" fill="#ffffff" stroke="#18212b" stroke-width="1"/>
<text x="1082" y="293" font-family="Arial, sans-serif" font-size="14" fill="#18212b">42 000</text>
<rect x="744" y="306" width="112" height="38" fill="#ffffff" stroke="#18212b" stroke-width="1"/>
<text x="754" y="331" font-family="Arial, sans-serif" font-size="14" fill="#18212b">B</text>
<rect x="856" y="306" width="112" height="38" fill="#ffffff" stroke="#18212b" stroke-width="1"/>
<text x="866" y="331" font-family="Arial, sans-serif" font-size="14" fill="#18212b">Ports</text>
<rect x="968" y="306" width="104" height="38" fill="#ffffff" stroke="#18212b" stroke-width="1"/>
<text x="978" y="331" font-family="Arial, sans-serif" font-size="14" fill="#18212b">Medium</text>
<rect x="1072" y="306" width="124" height="38" fill="#ffffff" stroke="#18212b" stroke-width="1"/>
<text x="1082" y="331" font-family="Arial, sans-serif" font-size="14" fill="#18212b">18 000</text>
<rect x="744" y="344" width="112" height="38" fill="#ffffff" stroke="#18212b" stroke-width="1"/>
<text x="754" y="369" font-family="Arial, sans-serif" font-size="14" fill="#18212b">C</text>
<rect x="856" y="344" width="112" height="38" fill="#ffffff" stroke="#18212b" stroke-width="1"/>
<text x="866" y="369" font-family="Arial, sans-serif" font-size="14" fill="#18212b">Tourism</text>
<rect x="968" y="344" width="104" height="38" fill="#ffffff" stroke="#18212b" stroke-width="1"/>
<text x="978" y="369" font-family="Arial, sans-serif" font-size="14" fill="#18212b">Growing</text>
<rect x="1072" y="344" width="124" height="38" fill="#ffffff" stroke="#18212b" stroke-width="1"/>
<text x="1082" y="369" font-family="Arial, sans-serif" font-size="14" fill="#18212b">26 000</text>
<rect x="744" y="426" width="452" height="48" fill="#ffffff" stroke="#18212b" stroke-width="1.5"/>
<text x="760" y="456" font-family="Arial, sans-serif" font-size="15" font-weight="800" fill="#18212b">Location factor:</text>
<line x1="930" y1="456" x2="1174" y2="456" stroke="#9ca3af" stroke-width="1.5"/>
<rect x="744" y="486" width="452" height="48" fill="#ffffff" stroke="#18212b" stroke-width="1.5"/>
<text x="760" y="516" font-family="Arial, sans-serif" font-size="15" font-weight="800" fill="#18212b">Data trend:</text>
<line x1="930" y1="516" x2="1174" y2="516" stroke="#9ca3af" stroke-width="1.5"/>
<rect x="744" y="546" width="452" height="48" fill="#ffffff" stroke="#18212b" stroke-width="1.5"/>
<text x="760" y="576" font-family="Arial, sans-serif" font-size="15" font-weight="800" fill="#18212b">Development link:</text>
<line x1="930" y1="576" x2="1174" y2="576" stroke="#9ca3af" stroke-width="1.5"/>
</svg>
