<svg xmlns="http://www.w3.org/2000/svg" width="1280" height="720" viewBox="0 0 1280 720">
  <rect width="1280" height="720" fill="#ffffff"/>
  <rect x="54" y="42" width="1172" height="636" fill="#ffffff" stroke="#18212b" stroke-width="2"/>
  <line x1="54" y1="134" x2="1226" y2="134" stroke="#18212b" stroke-width="2"/>
  <text x="82" y="82" font-family="Arial, sans-serif" font-size="28" font-weight="800" fill="#18212b">Religion Studies</text>
  <text x="82" y="116" font-family="Arial, sans-serif" font-size="16" font-weight="600" fill="#5b6570">Grade 12 Religion Studies Term 4 Visual Asset Pack: specifically for the study of the central</text>
<text x="82" y="136" font-family="Arial, sans-serif" font-size="16" font-weight="600" fill="#5b6570">teachings and normative so</text>
  <text x="1198" y="82" text-anchor="end" font-family="Arial, sans-serif" font-size="18" font-weight="800" fill="#18212b">SOURCE EVIDENCE</text>
  <text x="82" y="166" font-family="Arial, sans-serif" font-size="24" font-weight="800" fill="#18212b">Source response panel</text>
<rect x="90" y="204" width="500" height="180" fill="#ffffff" stroke="#18212b" stroke-width="2"/>
<text x="108" y="232" font-family="Arial, sans-serif" font-size="18" font-weight="800" fill="#18212b">Source A</text>
<text x="108" y="262" font-family="Arial, sans-serif" font-size="15" font-weight="500" fill="#18212b">Religion Studies Grade 12 Term 4: specifically for</text>
<text x="108" y="280" font-family="Arial, sans-serif" font-size="15" font-weight="500" fill="#18212b">the study of the central teachings and normative</text>
<text x="108" y="298" font-family="Arial, sans-serif" font-size="15" font-weight="500" fill="#18212b">sources of one religion. Specialisation in a</text>
<text x="108" y="316" font-family="Arial, sans-serif" font-size="15" font-weight="500" fill="#18212b">religion</text>
<rect x="650" y="204" width="500" height="180" fill="#ffffff" stroke="#18212b" stroke-width="2"/>
<text x="668" y="232" font-family="Arial, sans-serif" font-size="18" font-weight="800" fill="#18212b">Source B</text>
<text x="668" y="262" font-family="Arial, sans-serif" font-size="15" font-weight="500" fill="#18212b">Teacher inserts approved source extract, visual,</text>
<text x="668" y="280" font-family="Arial, sans-serif" font-size="15" font-weight="500" fill="#18212b">map, table, or document here.</text>
<rect x="90" y="420" width="156" height="40" fill="#e5e7eb" stroke="#18212b" stroke-width="1.5"/>
<text x="100" y="446" font-family="Arial, sans-serif" font-size="14" font-weight="800" fill="#18212b">Question</text>
<rect x="246" y="420" width="194" height="40" fill="#e5e7eb" stroke="#18212b" stroke-width="1.5"/>
<text x="256" y="446" font-family="Arial, sans-serif" font-size="14" font-weight="800" fill="#18212b">Source used</text>
<rect x="440" y="420" width="360" height="40" fill="#e5e7eb" stroke="#18212b" stroke-width="1.5"/>
<text x="450" y="446" font-family="Arial, sans-serif" font-size="14" font-weight="800" fill="#18212b">Evidence to quote or describe</text>
<rect x="800" y="420" width="322" height="40" fill="#e5e7eb" stroke="#18212b" stroke-width="1.5"/>
<text x="810" y="446" font-family="Arial, sans-serif" font-size="14" font-weight="800" fill="#18212b">Inference / answer</text>
<rect x="90" y="468" width="156" height="48" fill="#ffffff" stroke="#18212b" stroke-width="1"/>
<rect x="246" y="468" width="194" height="48" fill="#ffffff" stroke="#18212b" stroke-width="1"/>
<rect x="440" y="468" width="360" height="48" fill="#ffffff" stroke="#18212b" stroke-width="1"/>
<rect x="800" y="468" width="322" height="48" fill="#ffffff" stroke="#18212b" stroke-width="1"/>
<text x="104" y="497" font-family="Arial, sans-serif" font-size="15" font-weight="800" fill="#18212b">1.1</text>
<line x1="258" y1="497" x2="428" y2="497" stroke="#9ca3af" stroke-width="1.5"/>
<line x1="452" y1="497" x2="788" y2="497" stroke="#9ca3af" stroke-width="1.5"/>
<line x1="812" y1="497" x2="1110" y2="497" stroke="#9ca3af" stroke-width="1.5"/>
<rect x="90" y="516" width="156" height="48" fill="#ffffff" stroke="#18212b" stroke-width="1"/>
<rect x="246" y="516" width="194" height="48" fill="#ffffff" stroke="#18212b" stroke-width="1"/>
<rect x="440" y="516" width="360" height="48" fill="#ffffff" stroke="#18212b" stroke-width="1"/>
<rect x="800" y="516" width="322" height="48" fill="#ffffff" stroke="#18212b" stroke-width="1"/>
<text x="104" y="545" font-family="Arial, sans-serif" font-size="15" font-weight="800" fill="#18212b">1.2</text>
<line x1="258" y1="545" x2="428" y2="545" stroke="#9ca3af" stroke-width="1.5"/>
<line x1="452" y1="545" x2="788" y2="545" stroke="#9ca3af" stroke-width="1.5"/>
<line x1="812" y1="545" x2="1110" y2="545" stroke="#9ca3af" stroke-width="1.5"/>
</svg>
