<svg xmlns="http://www.w3.org/2000/svg" width="1280" height="720" viewBox="0 0 1280 720">
  <rect width="1280" height="720" fill="#f8faf7"/>
  <rect x="48" y="42" width="1184" height="636" rx="18" fill="#ffffff" stroke="#c9d3cc" stroke-width="3"/>
  <rect x="48" y="42" width="1184" height="92" fill="#225c7a"/>
  <text x="82" y="96" font-family="Arial, sans-serif" font-size="34" font-weight="800" fill="#ffffff">Coding and Robotics</text>
  <text x="82" y="124" font-family="Arial, sans-serif" font-size="18" font-weight="700" fill="#dbeafe">Design a Simple Maze-Solving Robot Using Recycled Materials</text>
  <defs><marker id="arrow" markerWidth="10" markerHeight="10" refX="8" refY="3" orient="auto"><path d="M0,0 L0,6 L9,3 z" fill="#18212b"/></marker></defs>
<text x="82" y="184" font-family="Arial" font-size="27" font-weight="800" fill="#18212b">DIAGRAM 1: Design process</text>
<circle cx="150" cy="300" r="62" fill="#225c7a"/>
<text x="150" y="310" text-anchor="middle" font-family="Arial" font-size="24" font-weight="900" fill="#fff">Ask</text>
<path d="M218 300 L249 300" stroke="#18212b" stroke-width="5" marker-end="url(#arrow)"/>
<circle cx="325" cy="300" r="62" fill="#1f6b3a"/>
<text x="325" y="310" text-anchor="middle" font-family="Arial" font-size="24" font-weight="900" fill="#fff">Imagine</text>
<path d="M393 300 L424 300" stroke="#18212b" stroke-width="5" marker-end="url(#arrow)"/>
<circle cx="500" cy="300" r="62" fill="#f3b64b"/>
<text x="500" y="310" text-anchor="middle" font-family="Arial" font-size="24" font-weight="900" fill="#fff">Plan</text>
<path d="M568 300 L599 300" stroke="#18212b" stroke-width="5" marker-end="url(#arrow)"/>
<circle cx="675" cy="300" r="62" fill="#b64a3d"/>
<text x="675" y="310" text-anchor="middle" font-family="Arial" font-size="24" font-weight="900" fill="#fff">Build</text>
<path d="M743 300 L774 300" stroke="#18212b" stroke-width="5" marker-end="url(#arrow)"/>
<circle cx="850" cy="300" r="62" fill="#6d5bd0"/>
<text x="850" y="310" text-anchor="middle" font-family="Arial" font-size="24" font-weight="900" fill="#fff">Test</text>
<path d="M918 300 L949 300" stroke="#18212b" stroke-width="5" marker-end="url(#arrow)"/>
<circle cx="1025" cy="300" r="62" fill="#0f766e"/>
<text x="1025" y="310" text-anchor="middle" font-family="Arial" font-size="24" font-weight="900" fill="#fff">Improve</text>
<text x="116" y="446" font-family="Arial" font-size="24" font-weight="900" fill="#18212b">Design log</text>
<rect x="116" y="470" width="1040" height="38" fill="#eef6f3" stroke="#c9d3cc"/>
<text x="138" y="496" font-family="Arial" font-size="21" font-weight="800" fill="#18212b">Material</text>
<line x1="390" y1="470" x2="390" y2="508" stroke="#c9d3cc" stroke-width="2"/>
<rect x="116" y="510" width="1040" height="38" fill="#ffffff" stroke="#c9d3cc"/>
<text x="138" y="536" font-family="Arial" font-size="21" font-weight="800" fill="#18212b">Purpose</text>
<line x1="390" y1="510" x2="390" y2="548" stroke="#c9d3cc" stroke-width="2"/>
<rect x="116" y="550" width="1040" height="38" fill="#eef6f3" stroke="#c9d3cc"/>
<text x="138" y="576" font-family="Arial" font-size="21" font-weight="800" fill="#18212b">Constraint</text>
<line x1="390" y1="550" x2="390" y2="588" stroke="#c9d3cc" stroke-width="2"/>
<rect x="116" y="590" width="1040" height="38" fill="#ffffff" stroke="#c9d3cc"/>
<text x="138" y="616" font-family="Arial" font-size="21" font-weight="800" fill="#18212b">Test result</text>
<line x1="390" y1="590" x2="390" y2="628" stroke="#c9d3cc" stroke-width="2"/>
</svg>
